<svg width="259" height="57" viewBox="0 0 259 57" fill="none" xmlns="http://www.w3.org/2000/svg">
<path d="M26.625 0C11.9221 0 0 11.9221 0 26.625V47.3333C0 52.2442 3.96417 56.2083 8.875 56.2083H17.75V32.5417H5.91667V26.625C5.91667 15.1762 15.1762 5.91667 26.625 5.91667C38.0737 5.91667 47.3333 15.1762 47.3333 26.625V32.5417H35.5V56.2083H44.375C49.2858 56.2083 53.25 52.2442 53.25 47.3333V26.625C53.25 11.9221 41.3279 0 26.625 0Z" fill="#6058BE"/>
<path d="M79.6111 44.7C78.3111 44.7 77.2111 44.6667 76.3111 44.6C75.4445 44.5 74.2945 44.35 72.8611 44.15L72.8111 49.4C72.7778 50.3 72.7611 51.5833 72.7611 53.25C72.7611 54.1167 72.5111 54.8 72.0111 55.3C71.5445 55.7667 71.0111 56 70.4111 56C69.3111 56 68.4945 55.8667 67.9611 55.6C67.4278 55.3 67.1611 54.7833 67.1611 54.05C67.1611 53.0833 67.2445 51.7167 67.4111 49.95C67.7778 46.15 67.9611 42.25 67.9611 38.25C67.9611 34.5167 67.8445 31 67.6111 27.7C67.6445 27.2333 67.8778 26.7 68.3111 26.1C68.7778 25.5 69.3611 25.1667 70.0611 25.1C70.8278 25.1 72.0445 24.9667 73.7111 24.7C75.4445 24.4333 76.7611 24.3 77.6611 24.3C80.3945 24.3 82.5111 24.5667 84.0111 25.1C85.5445 25.6333 87.0778 26.5167 88.6111 27.75C90.2778 30.35 91.1111 32.1833 91.1111 33.25C91.1111 35.4833 90.6611 37.4667 89.7611 39.2C88.8611 40.9333 87.5445 42.2833 85.8111 43.25C84.0778 44.2167 82.0111 44.7 79.6111 44.7ZM78.4611 28.55C77.3945 28.55 76.4611 28.6167 75.6611 28.75C74.8945 28.85 73.9611 29.0333 72.8611 29.3C72.9945 32.3667 73.0611 34.6 73.0611 36C73.0611 37.4333 73.0111 38.6333 72.9111 39.6C74.3445 39.9 75.4778 40.1 76.3111 40.2C77.1445 40.2667 78.0778 40.3 79.1111 40.3C81.5778 40.3 83.3111 39.6667 84.3111 38.4C85.3445 37.1 85.8611 35.6 85.8611 33.9C85.8611 33.4 85.7111 32.7833 85.4111 32.05C85.1111 31.3167 84.8445 30.8333 84.6111 30.6C83.7111 29.8 82.8278 29.2667 81.9611 29C81.1278 28.7 79.9611 28.55 78.4611 28.55ZM102.276 54C102.276 54.5667 102.059 55.0667 101.626 55.5C101.192 55.9333 100.659 56.15 100.026 56.15C99.0256 56.15 98.2923 55.9667 97.8256 55.6C97.3589 55.2 97.1256 54.4833 97.1256 53.45C97.1256 52.2167 97.0923 50.6 97.0256 48.6C96.9589 46.9333 96.9256 45.5333 96.9256 44.4C96.9256 43.8667 96.9589 43.1667 97.0256 42.3C97.0923 41.5 97.1256 40.9 97.1256 40.5C97.0256 39.8667 96.7756 39.35 96.3756 38.95C95.9756 38.5167 95.4589 38.3 94.8256 38.3C94.5256 38.3 94.2756 38.1667 94.0756 37.9C93.8756 37.6 93.7756 37.3 93.7756 37C93.7756 36.2333 94.0756 35.65 94.6756 35.25C95.3089 34.85 96.0589 34.65 96.9256 34.65C98.7256 34.65 99.9756 35.7167 100.676 37.85C101.542 36.85 102.526 36.05 103.626 35.45C104.759 34.8167 105.842 34.5 106.876 34.5C108.109 34.5 109.226 34.8333 110.226 35.5C111.259 36.1667 111.776 37.0667 111.776 38.2C111.776 38.8333 111.492 39.4833 110.926 40.15C110.392 40.8167 109.842 41.15 109.276 41.15C108.976 41.15 108.709 41.0833 108.476 40.95C108.276 40.7833 108.026 40.55 107.726 40.25C107.392 39.9167 107.109 39.6833 106.876 39.55C106.642 39.3833 106.376 39.3 106.076 39.3C105.542 39.3 105.042 39.3833 104.576 39.55C104.109 39.7167 103.792 39.9167 103.626 40.15C103.092 40.9833 102.692 41.7333 102.426 42.4C102.192 43.0667 102.076 43.7833 102.076 44.55C102.076 45.1167 102.059 45.5667 102.026 45.9L101.976 48.75C101.976 49.1833 101.992 49.6667 102.026 50.2C102.059 50.7333 102.092 51.1333 102.126 51.4C102.226 52.3 102.276 53.1667 102.276 54ZM134.549 39.95C134.815 40.4167 135.032 41.1 135.199 42C135.365 42.8667 135.449 43.65 135.449 44.35C135.449 45.65 135.165 47.5 134.599 49.9C132.299 54.1 128.899 56.2 124.399 56.2C122.732 56.2 121.032 55.65 119.299 54.55C117.565 53.45 116.365 52.1833 115.699 50.75C114.799 47.8833 114.349 46.0667 114.349 45.3C114.349 43.9667 114.632 42.55 115.199 41.05C115.799 39.55 116.549 38.25 117.449 37.15C118.015 36.3833 119.032 35.7333 120.499 35.2C121.965 34.6333 123.299 34.35 124.499 34.35C126.832 34.35 128.815 34.8 130.449 35.7C132.082 36.5667 133.449 37.9833 134.549 39.95ZM130.199 48C130.365 47.5667 130.449 46.45 130.449 44.65C130.449 43.6833 130.265 42.7333 129.899 41.8C129.565 40.8667 129.065 40.0667 128.399 39.4C128.332 39.3333 128.149 39.2333 127.849 39.1C127.549 38.9333 127.132 38.7833 126.599 38.65C126.099 38.4833 125.515 38.4 124.849 38.4C122.982 38.4 121.615 39.15 120.749 40.65C119.882 42.15 119.449 43.85 119.449 45.75C119.449 46.0833 119.532 46.7167 119.699 47.65C119.899 48.5833 120.065 49.1667 120.199 49.4C120.299 49.6333 120.549 49.9667 120.949 50.4C121.382 50.8 121.899 51.1667 122.499 51.5C123.132 51.8 123.782 51.95 124.449 51.95C125.949 51.95 127.149 51.6 128.049 50.9C128.949 50.1667 129.665 49.2 130.199 48ZM166.535 51.3C167.035 51.3 167.435 51.5167 167.735 51.95C168.068 52.3833 168.235 52.85 168.235 53.35C168.235 54.2167 167.901 54.8833 167.235 55.35C166.601 55.7833 165.768 56 164.735 56C163.201 56 161.968 55.7333 161.035 55.2C160.101 54.6667 159.268 53.6667 158.535 52.2C158.301 51.6667 158.018 50.8 157.685 49.6C157.385 48.4 157.068 47.45 156.735 46.75C156.435 46.0167 155.918 45.4 155.185 44.9C154.485 44.4 153.518 44.1333 152.285 44.1L151.185 44.15C150.051 44.2167 149.201 44.25 148.635 44.25C147.968 44.25 147.335 44.2 146.735 44.1C146.801 48.5 146.835 51.8667 146.835 54.2C146.835 54.8 146.535 55.3 145.935 55.7C145.368 56.1 144.718 56.3 143.985 56.3C143.118 56.3 142.435 55.9667 141.935 55.3C141.535 54.5 141.335 53.3167 141.335 51.75C141.335 51.2167 141.368 50.45 141.435 49.45L141.485 47.25C141.485 45.2167 141.568 43.0333 141.735 40.7C141.868 38.0333 141.935 36.0833 141.935 34.85C141.935 33.8167 141.835 32.4333 141.635 30.7C141.601 30.3667 141.551 29.8333 141.485 29.1C141.418 28.3333 141.385 27.65 141.385 27.05C141.385 26.6167 141.568 26.2167 141.935 25.85C142.301 25.4833 142.668 25.25 143.035 25.15C145.768 24.7167 148.468 24.5 151.135 24.5C155.468 24.5 159.018 25.3167 161.785 26.95C164.551 28.5833 165.935 31.0833 165.935 34.45C165.935 35.45 165.668 36.5 165.135 37.6C164.635 38.6667 164.001 39.5 163.235 40.1C161.935 41.2333 160.535 41.9667 159.035 42.3C159.101 42.3667 159.468 42.7 160.135 43.3C160.801 43.9 161.251 44.5333 161.485 45.2L162.135 47.2C162.701 48.8333 163.151 49.9667 163.485 50.6C163.818 51.2 164.251 51.5 164.785 51.5C165.285 51.5 165.585 51.4667 165.685 51.4C165.818 51.3333 166.101 51.3 166.535 51.3ZM146.685 39.85C147.685 39.9167 148.385 39.95 148.785 39.95C149.385 39.95 150.218 39.9167 151.285 39.85L153.635 39.8C154.668 39.8 155.735 39.5667 156.835 39.1C157.935 38.6333 158.851 37.9833 159.585 37.15C160.318 36.2833 160.685 35.3167 160.685 34.25C160.685 32.35 159.918 30.9667 158.385 30.1C156.851 29.2333 154.468 28.8 151.235 28.8C150.001 28.8 148.551 28.9667 146.885 29.3C146.951 30.5 146.985 31.3667 146.985 31.9C146.985 32.5333 146.951 33.4833 146.885 34.75L146.835 36.2C146.735 37.6 146.685 38.8167 146.685 39.85ZM190.34 56.2C189.207 56.2 188.34 56.0333 187.74 55.7C187.14 55.3333 186.49 54.6667 185.79 53.7C184.924 54.4667 183.624 55.0833 181.89 55.55C180.19 56.0167 178.724 56.25 177.49 56.25C175.457 56.25 173.807 55.7 172.54 54.6C171.307 53.4667 170.69 51.8167 170.69 49.65C170.69 48.7167 170.94 47.8667 171.44 47.1C171.974 46.3 172.657 45.6 173.49 45C174.424 44.3667 175.524 43.8667 176.79 43.5C178.09 43.1333 179.274 42.95 180.34 42.95C182.14 42.95 183.74 43.1167 185.14 43.45V43.4C185.14 41.6 184.69 40.3667 183.79 39.7C182.924 39 181.524 38.65 179.59 38.65C178.357 38.65 177.29 39.2 176.39 40.3C176.057 40.7333 175.357 40.95 174.29 40.95C173.757 40.95 173.357 40.7333 173.09 40.3C172.857 39.8333 172.74 39.3667 172.74 38.9C172.74 37.9333 173.14 37.1 173.94 36.4C174.774 35.7 175.774 35.1833 176.94 34.85C178.107 34.4833 179.19 34.3 180.19 34.3C181.157 34.3 182.307 34.5 183.64 34.9C184.974 35.3 186.057 35.8333 186.89 36.5C187.89 37.3667 188.657 38.3833 189.19 39.55C189.757 40.6833 190.04 41.9333 190.04 43.3C190.04 43.7333 190.007 44.3833 189.94 45.25C189.874 46.25 189.84 47.0667 189.84 47.7C189.84 48 189.807 48.3833 189.74 48.85C189.674 49.45 189.64 49.95 189.64 50.35C189.64 50.7833 189.774 51.2 190.04 51.6C190.307 52 190.674 52.3333 191.14 52.6C191.574 52.8333 191.857 53.0833 191.99 53.35C192.124 53.6167 192.19 53.9167 192.19 54.25C192.19 54.5833 191.974 55 191.54 55.5C191.14 55.9667 190.74 56.2 190.34 56.2ZM180.34 46.65C179.04 46.65 177.89 46.9 176.89 47.4C175.89 47.9 175.39 48.7833 175.39 50.05C175.39 50.6833 175.607 51.2167 176.04 51.65C176.507 52.0833 177.007 52.3 177.54 52.3C178.974 52.3 180.174 52.15 181.14 51.85C182.107 51.55 183.274 51 184.64 50.2C184.807 49.6667 184.907 48.9167 184.94 47.95C184.94 47.5833 184.957 47.3 184.99 47.1C183.19 46.8 181.64 46.65 180.34 46.65ZM216.65 55.75C215.95 55.75 215.283 55.55 214.65 55.15C214.05 54.7167 213.516 54.2667 213.05 53.8C212.583 53.3 212.266 52.9667 212.1 52.8C211.4 53.8 210.383 54.6167 209.05 55.25C207.716 55.8833 206.433 56.2 205.2 56.2C203.3 56.2 201.616 55.8 200.15 55C198.683 54.2 197.55 53.1167 196.75 51.75C195.95 50.35 195.55 48.8 195.55 47.1C195.55 45.5 195.733 43.9667 196.1 42.5C196.5 41 197.033 39.75 197.7 38.75C198.6 37.4833 199.8 36.4833 201.3 35.75C202.833 35.0167 204.35 34.65 205.85 34.65C206.75 34.65 207.6 34.8167 208.4 35.15C209.2 35.4833 209.9 35.9 210.5 36.4C210.5 34.2 210.483 32.8167 210.45 32.25V31.15C210.45 28.0167 210.65 25.7333 211.05 24.3C211.416 22.9 212.316 22.2 213.75 22.2C214.516 22.2 215.083 22.3667 215.45 22.7C215.816 23.0333 216 23.6667 216 24.6C216 24.9333 215.916 25.85 215.75 27.35C215.383 31.0833 215.2 34.8167 215.2 38.55C215.2 41.6833 215.25 44.0167 215.35 45.55C215.483 47.05 215.733 48.25 216.1 49.15C216.5 50.05 217.116 50.85 217.95 51.55C218.45 51.95 218.8 52.2833 219 52.55C219.233 52.8167 219.35 53.1667 219.35 53.6C219.35 54.1333 219.083 54.6333 218.55 55.1C218.016 55.5333 217.383 55.75 216.65 55.75ZM205.05 52.15C206.816 52.15 208.116 51.6 208.95 50.5C209.816 49.3667 210.25 47.9333 210.25 46.2L210.2 43.4C210.166 42.8667 210.15 42.15 210.15 41.25C208.916 39.7833 207.583 39.05 206.15 39.05C205.183 39.05 204.266 39.3 203.4 39.8C202.566 40.3 201.883 41.0333 201.35 42C200.783 43.1 200.5 44.7667 200.5 47C200.5 48.5333 200.95 49.7833 201.85 50.75C202.75 51.6833 203.816 52.15 205.05 52.15ZM225.158 23.9C226.324 24 227.324 24.3167 228.158 24.85C229.024 25.35 229.458 26.1167 229.458 27.15C229.458 27.9167 229.108 28.5333 228.408 29C227.708 29.4333 226.841 29.65 225.808 29.65C224.841 29.65 224.174 29.4 223.808 28.9C223.441 28.4 223.258 27.8833 223.258 27.35C223.258 26.3833 223.374 25.5667 223.608 24.9C223.841 24.2 224.358 23.8667 225.158 23.9ZM224.158 44.55V43.1C224.158 41.4333 224.074 39.9167 223.908 38.55C223.774 37.15 223.691 36.2833 223.658 35.95C223.691 35.5833 223.941 35.2333 224.408 34.9C224.874 34.5667 225.291 34.4 225.658 34.4C226.291 34.4 226.924 34.5333 227.558 34.8C228.224 35.0333 228.641 35.3333 228.808 35.7C228.974 36.9333 229.058 37.8833 229.058 38.55C229.058 40.0167 229.124 42.4167 229.258 45.75L229.308 47.7L229.408 49.6C229.441 50.1333 229.474 50.7667 229.508 51.5C229.541 52.2333 229.558 53.0667 229.558 54C229.558 54.6333 229.241 55.1667 228.608 55.6C228.008 56.0333 227.374 56.25 226.708 56.25C225.741 56.25 225.058 56.0333 224.658 55.6C224.291 55.1667 224.108 54.4833 224.108 53.55L224.158 44.55ZM255.203 39.95C255.47 40.4167 255.686 41.1 255.853 42C256.02 42.8667 256.103 43.65 256.103 44.35C256.103 45.65 255.82 47.5 255.253 49.9C252.953 54.1 249.553 56.2 245.053 56.2C243.386 56.2 241.686 55.65 239.953 54.55C238.22 53.45 237.02 52.1833 236.353 50.75C235.453 47.8833 235.003 46.0667 235.003 45.3C235.003 43.9667 235.286 42.55 235.853 41.05C236.453 39.55 237.203 38.25 238.103 37.15C238.67 36.3833 239.686 35.7333 241.153 35.2C242.62 34.6333 243.953 34.35 245.153 34.35C247.486 34.35 249.47 34.8 251.103 35.7C252.736 36.5667 254.103 37.9833 255.203 39.95ZM250.853 48C251.02 47.5667 251.103 46.45 251.103 44.65C251.103 43.6833 250.92 42.7333 250.553 41.8C250.22 40.8667 249.72 40.0667 249.053 39.4C248.986 39.3333 248.803 39.2333 248.503 39.1C248.203 38.9333 247.786 38.7833 247.253 38.65C246.753 38.4833 246.17 38.4 245.503 38.4C243.636 38.4 242.27 39.15 241.403 40.65C240.536 42.15 240.103 43.85 240.103 45.75C240.103 46.0833 240.186 46.7167 240.353 47.65C240.553 48.5833 240.72 49.1667 240.853 49.4C240.953 49.6333 241.203 49.9667 241.603 50.4C242.036 50.8 242.553 51.1667 243.153 51.5C243.786 51.8 244.436 51.95 245.103 51.95C246.603 51.95 247.803 51.6 248.703 50.9C249.603 50.1667 250.32 49.2 250.853 48Z" fill="#6058BE"/>
</svg>
