<svg width="20" height="20" viewBox="0 0 20 20" fill="none" xmlns="http://www.w3.org/2000/svg">
    <path d="M10 1.5C11.1162 1.5 12.2215 1.71986 13.2528 2.14702C14.2841 2.57419 15.2211 3.20029 16.0104 3.98959C16.7997 4.77889 17.4258 5.71592 17.853 6.74719C18.2801 7.77846 18.5 8.88377 18.5 10C18.5 11.1162 18.2801 12.2215 17.853 13.2528C17.4258 14.2841 16.7997 15.2211 16.0104 16.0104C15.2211 16.7997 14.2841 17.4258 13.2528 17.853C12.2215 18.2801 11.1162 18.5 10 18.5C8.88376 18.5 7.77846 18.2801 6.74719 17.853C5.71592 17.4258 4.77889 16.7997 3.98959 16.0104C3.20029 15.2211 2.57419 14.2841 2.14702 13.2528C1.71986 12.2215 1.5 11.1162 1.5 10C1.5 8.88376 1.71986 7.77845 2.14703 6.74719C2.57419 5.71592 3.2003 4.77889 3.9896 3.98959C4.77889 3.20029 5.71593 2.57419 6.7472 2.14702C7.77846 1.71986 8.88377 1.5 10 1.5L10 1.5Z" stroke="#8D84F8" stroke-width="3"/>
    <path d="M10.0957 1.50054C11.9667 1.5216 13.7785 2.15944 15.25 3.31516C16.7216 4.47087 17.7707 6.07986 18.2346 7.89258C18.6985 9.70529 18.5513 11.6204 17.8159 13.341C17.0804 15.0615 15.7978 16.4913 14.1669 17.4086" stroke="white" stroke-width="3" stroke-linecap="round" stroke-linejoin="round"/>
</svg>
