<?xml version="1.0" standalone="no"?>
<!DOCTYPE svg PUBLIC "-//W3C//DTD SVG 20010904//EN"
 "http://www.w3.org/TR/2001/REC-SVG-20010904/DTD/svg10.dtd">
<svg version="1.0" xmlns="http://www.w3.org/2000/svg"
 width="256.000000pt" height="256.000000pt" viewBox="0 0 256.000000 256.000000"
 preserveAspectRatio="xMidYMid meet">
<metadata>
Created by potrace 1.14, written by Peter Selinger 2001-2017
</metadata>
<g transform="translate(0.000000,256.000000) scale(0.100000,-0.100000)"
fill="#000000" stroke="none">
<path d="M1208 2455 c-2 -2 -28 -5 -59 -8 -253 -27 -500 -152 -682 -345 -22
-23 -48 -52 -56 -63 -9 -11 -25 -33 -37 -47 -56 -73 -117 -193 -154 -304 -52
-154 -57 -219 -56 -788 l1 -515 31 -66 c50 -104 139 -182 242 -209 35 -9 330
-16 448 -11 l21 1 1 495 1 495 -251 0 -251 0 6 193 c6 221 22 300 87 432 56
113 61 120 145 212 130 142 280 224 490 269 11 3 63 6 115 8 407 14 765 -252
871 -649 17 -64 23 -119 26 -272 l5 -193 -250 0 -250 0 0 -495 -1 -495 47 -1
c189 -4 384 1 422 11 105 28 193 103 244 210 l31 65 1 525 c1 561 -4 622 -54
775 -127 386 -458 676 -858 750 -69 13 -268 27 -276 20z"/>
</g>
</svg>
